<mxfile host="app.diagrams.net" agent="Mozilla/5.0 (Windows NT 10.0; Win64; x64) AppleWebKit/537.36 (KHTML, like Gecko) Chrome/140.0.0.0 Safari/537.36 Edg/140.0.0.0" version="28.2.5">
  <diagram name="Página-1" id="LL7N7euipwsq4ipHBLN4">
    <mxGraphModel dx="1418" dy="786" grid="1" gridSize="10" guides="1" tooltips="1" connect="1" arrows="1" fold="1" page="1" pageScale="1" pageWidth="827" pageHeight="1169" background="#FFFFFF" math="0" shadow="1">
      <root>
        <mxCell id="0" />
        <mxCell id="1" parent="0" />
        <mxCell id="tyXF_pZuItII3kSLFftu-31" value="" style="edgeStyle=orthogonalEdgeStyle;rounded=0;orthogonalLoop=1;jettySize=auto;html=1;" edge="1" parent="1" source="tyXF_pZuItII3kSLFftu-1" target="tyXF_pZuItII3kSLFftu-2">
          <mxGeometry relative="1" as="geometry" />
        </mxCell>
        <mxCell id="tyXF_pZuItII3kSLFftu-1" value="Início" style="ellipse;whiteSpace=wrap;html=1;fillColor=#f8cecc;strokeColor=#b85450;" vertex="1" parent="1">
          <mxGeometry x="354" y="20" width="120" height="80" as="geometry" />
        </mxCell>
        <mxCell id="tyXF_pZuItII3kSLFftu-45" value="" style="edgeStyle=orthogonalEdgeStyle;rounded=0;orthogonalLoop=1;jettySize=auto;html=1;" edge="1" parent="1" source="tyXF_pZuItII3kSLFftu-2" target="tyXF_pZuItII3kSLFftu-44">
          <mxGeometry relative="1" as="geometry" />
        </mxCell>
        <mxCell id="tyXF_pZuItII3kSLFftu-2" value="Ler N" style="shape=parallelogram;perimeter=parallelogramPerimeter;whiteSpace=wrap;html=1;fixedSize=1;fillColor=#dae8fc;strokeColor=#6c8ebf;" vertex="1" parent="1">
          <mxGeometry x="354" y="140" width="120" height="60" as="geometry" />
        </mxCell>
        <mxCell id="tyXF_pZuItII3kSLFftu-13" style="edgeStyle=orthogonalEdgeStyle;rounded=0;orthogonalLoop=1;jettySize=auto;html=1;entryX=0;entryY=0.5;entryDx=0;entryDy=0;" edge="1" parent="1" source="tyXF_pZuItII3kSLFftu-3" target="tyXF_pZuItII3kSLFftu-4">
          <mxGeometry relative="1" as="geometry" />
        </mxCell>
        <mxCell id="tyXF_pZuItII3kSLFftu-14" value="1" style="edgeLabel;html=1;align=center;verticalAlign=middle;resizable=0;points=[];" vertex="1" connectable="0" parent="tyXF_pZuItII3kSLFftu-13">
          <mxGeometry x="0.5" y="2" relative="1" as="geometry">
            <mxPoint as="offset" />
          </mxGeometry>
        </mxCell>
        <mxCell id="tyXF_pZuItII3kSLFftu-15" style="edgeStyle=orthogonalEdgeStyle;rounded=0;orthogonalLoop=1;jettySize=auto;html=1;entryX=0;entryY=0.5;entryDx=0;entryDy=0;" edge="1" parent="1" source="tyXF_pZuItII3kSLFftu-3" target="tyXF_pZuItII3kSLFftu-5">
          <mxGeometry relative="1" as="geometry">
            <Array as="points">
              <mxPoint x="507" y="420" />
              <mxPoint x="507" y="440" />
            </Array>
          </mxGeometry>
        </mxCell>
        <mxCell id="tyXF_pZuItII3kSLFftu-16" value="2" style="edgeLabel;html=1;align=center;verticalAlign=middle;resizable=0;points=[];" vertex="1" connectable="0" parent="tyXF_pZuItII3kSLFftu-15">
          <mxGeometry x="0.5248" y="2" relative="1" as="geometry">
            <mxPoint as="offset" />
          </mxGeometry>
        </mxCell>
        <mxCell id="tyXF_pZuItII3kSLFftu-17" style="edgeStyle=orthogonalEdgeStyle;rounded=0;orthogonalLoop=1;jettySize=auto;html=1;" edge="1" parent="1" source="tyXF_pZuItII3kSLFftu-3" target="tyXF_pZuItII3kSLFftu-6">
          <mxGeometry relative="1" as="geometry">
            <Array as="points">
              <mxPoint x="460" y="490" />
            </Array>
          </mxGeometry>
        </mxCell>
        <mxCell id="tyXF_pZuItII3kSLFftu-18" value="3" style="edgeLabel;html=1;align=center;verticalAlign=middle;resizable=0;points=[];" vertex="1" connectable="0" parent="tyXF_pZuItII3kSLFftu-17">
          <mxGeometry x="0.5915" y="-1" relative="1" as="geometry">
            <mxPoint as="offset" />
          </mxGeometry>
        </mxCell>
        <mxCell id="tyXF_pZuItII3kSLFftu-19" style="edgeStyle=orthogonalEdgeStyle;rounded=0;orthogonalLoop=1;jettySize=auto;html=1;entryX=0;entryY=0.5;entryDx=0;entryDy=0;" edge="1" parent="1" source="tyXF_pZuItII3kSLFftu-3" target="tyXF_pZuItII3kSLFftu-8">
          <mxGeometry relative="1" as="geometry">
            <Array as="points">
              <mxPoint x="450" y="540" />
            </Array>
          </mxGeometry>
        </mxCell>
        <mxCell id="tyXF_pZuItII3kSLFftu-20" value="4" style="edgeLabel;html=1;align=center;verticalAlign=middle;resizable=0;points=[];" vertex="1" connectable="0" parent="tyXF_pZuItII3kSLFftu-19">
          <mxGeometry x="0.6316" y="-1" relative="1" as="geometry">
            <mxPoint as="offset" />
          </mxGeometry>
        </mxCell>
        <mxCell id="tyXF_pZuItII3kSLFftu-21" style="edgeStyle=orthogonalEdgeStyle;rounded=0;orthogonalLoop=1;jettySize=auto;html=1;entryX=0;entryY=0.5;entryDx=0;entryDy=0;" edge="1" parent="1" source="tyXF_pZuItII3kSLFftu-3" target="tyXF_pZuItII3kSLFftu-10">
          <mxGeometry relative="1" as="geometry">
            <Array as="points">
              <mxPoint x="440" y="590" />
            </Array>
          </mxGeometry>
        </mxCell>
        <mxCell id="tyXF_pZuItII3kSLFftu-22" value="5" style="edgeLabel;html=1;align=center;verticalAlign=middle;resizable=0;points=[];" vertex="1" connectable="0" parent="tyXF_pZuItII3kSLFftu-21">
          <mxGeometry x="0.672" y="-3" relative="1" as="geometry">
            <mxPoint as="offset" />
          </mxGeometry>
        </mxCell>
        <mxCell id="tyXF_pZuItII3kSLFftu-23" style="edgeStyle=orthogonalEdgeStyle;rounded=0;orthogonalLoop=1;jettySize=auto;html=1;entryX=0;entryY=0.5;entryDx=0;entryDy=0;" edge="1" parent="1" source="tyXF_pZuItII3kSLFftu-3" target="tyXF_pZuItII3kSLFftu-11">
          <mxGeometry relative="1" as="geometry">
            <Array as="points">
              <mxPoint x="430" y="640" />
            </Array>
          </mxGeometry>
        </mxCell>
        <mxCell id="tyXF_pZuItII3kSLFftu-24" value="6" style="edgeLabel;html=1;align=center;verticalAlign=middle;resizable=0;points=[];" vertex="1" connectable="0" parent="tyXF_pZuItII3kSLFftu-23">
          <mxGeometry x="0.7355" relative="1" as="geometry">
            <mxPoint as="offset" />
          </mxGeometry>
        </mxCell>
        <mxCell id="tyXF_pZuItII3kSLFftu-25" style="edgeStyle=orthogonalEdgeStyle;rounded=0;orthogonalLoop=1;jettySize=auto;html=1;entryX=0;entryY=0.5;entryDx=0;entryDy=0;" edge="1" parent="1" source="tyXF_pZuItII3kSLFftu-3" target="tyXF_pZuItII3kSLFftu-12">
          <mxGeometry relative="1" as="geometry">
            <Array as="points">
              <mxPoint x="414" y="690" />
              <mxPoint x="550" y="690" />
            </Array>
          </mxGeometry>
        </mxCell>
        <mxCell id="tyXF_pZuItII3kSLFftu-26" value="7" style="edgeLabel;html=1;align=center;verticalAlign=middle;resizable=0;points=[];" vertex="1" connectable="0" parent="tyXF_pZuItII3kSLFftu-25">
          <mxGeometry x="0.7165" relative="1" as="geometry">
            <mxPoint as="offset" />
          </mxGeometry>
        </mxCell>
        <mxCell id="tyXF_pZuItII3kSLFftu-3" value="Caso N" style="shape=hexagon;perimeter=hexagonPerimeter2;whiteSpace=wrap;html=1;fixedSize=1;fillColor=#e1d5e7;strokeColor=#9673a6;" vertex="1" parent="1">
          <mxGeometry x="354" y="370" width="120" height="80" as="geometry" />
        </mxCell>
        <mxCell id="tyXF_pZuItII3kSLFftu-35" style="edgeStyle=orthogonalEdgeStyle;rounded=0;orthogonalLoop=1;jettySize=auto;html=1;" edge="1" parent="1" source="tyXF_pZuItII3kSLFftu-4" target="tyXF_pZuItII3kSLFftu-30">
          <mxGeometry relative="1" as="geometry">
            <Array as="points">
              <mxPoint x="730" y="390" />
              <mxPoint x="730" y="800" />
            </Array>
          </mxGeometry>
        </mxCell>
        <mxCell id="tyXF_pZuItII3kSLFftu-4" value="Escrever&lt;div&gt;&quot;Segunda-feira&quot;&lt;/div&gt;" style="shape=parallelogram;perimeter=parallelogramPerimeter;whiteSpace=wrap;html=1;fixedSize=1;fillColor=#dae8fc;strokeColor=#6c8ebf;" vertex="1" parent="1">
          <mxGeometry x="540" y="370" width="120" height="40" as="geometry" />
        </mxCell>
        <mxCell id="tyXF_pZuItII3kSLFftu-36" style="edgeStyle=orthogonalEdgeStyle;rounded=0;orthogonalLoop=1;jettySize=auto;html=1;" edge="1" parent="1" source="tyXF_pZuItII3kSLFftu-5" target="tyXF_pZuItII3kSLFftu-30">
          <mxGeometry relative="1" as="geometry">
            <Array as="points">
              <mxPoint x="730" y="440" />
              <mxPoint x="730" y="800" />
            </Array>
          </mxGeometry>
        </mxCell>
        <mxCell id="tyXF_pZuItII3kSLFftu-5" value="Escrever&lt;div&gt;&quot;Terça-feira&quot;&lt;/div&gt;" style="shape=parallelogram;perimeter=parallelogramPerimeter;whiteSpace=wrap;html=1;fixedSize=1;fillColor=#dae8fc;strokeColor=#6c8ebf;" vertex="1" parent="1">
          <mxGeometry x="540" y="420" width="120" height="40" as="geometry" />
        </mxCell>
        <mxCell id="tyXF_pZuItII3kSLFftu-37" style="edgeStyle=orthogonalEdgeStyle;rounded=0;orthogonalLoop=1;jettySize=auto;html=1;" edge="1" parent="1" source="tyXF_pZuItII3kSLFftu-6" target="tyXF_pZuItII3kSLFftu-30">
          <mxGeometry relative="1" as="geometry">
            <Array as="points">
              <mxPoint x="730" y="490" />
              <mxPoint x="730" y="800" />
            </Array>
          </mxGeometry>
        </mxCell>
        <mxCell id="tyXF_pZuItII3kSLFftu-6" value="Escrever&lt;div&gt;&quot;Quarta-feira&quot;&lt;/div&gt;" style="shape=parallelogram;perimeter=parallelogramPerimeter;whiteSpace=wrap;html=1;fixedSize=1;fillColor=#dae8fc;strokeColor=#6c8ebf;" vertex="1" parent="1">
          <mxGeometry x="540" y="470" width="120" height="40" as="geometry" />
        </mxCell>
        <mxCell id="tyXF_pZuItII3kSLFftu-38" style="edgeStyle=orthogonalEdgeStyle;rounded=0;orthogonalLoop=1;jettySize=auto;html=1;" edge="1" parent="1" source="tyXF_pZuItII3kSLFftu-8" target="tyXF_pZuItII3kSLFftu-30">
          <mxGeometry relative="1" as="geometry">
            <Array as="points">
              <mxPoint x="730" y="540" />
              <mxPoint x="730" y="800" />
            </Array>
          </mxGeometry>
        </mxCell>
        <mxCell id="tyXF_pZuItII3kSLFftu-8" value="Escrever&lt;div&gt;&quot;Quinta-feira&quot;&lt;/div&gt;" style="shape=parallelogram;perimeter=parallelogramPerimeter;whiteSpace=wrap;html=1;fixedSize=1;fillColor=#dae8fc;strokeColor=#6c8ebf;" vertex="1" parent="1">
          <mxGeometry x="540" y="520" width="120" height="40" as="geometry" />
        </mxCell>
        <mxCell id="tyXF_pZuItII3kSLFftu-39" style="edgeStyle=orthogonalEdgeStyle;rounded=0;orthogonalLoop=1;jettySize=auto;html=1;" edge="1" parent="1" source="tyXF_pZuItII3kSLFftu-10" target="tyXF_pZuItII3kSLFftu-30">
          <mxGeometry relative="1" as="geometry">
            <Array as="points">
              <mxPoint x="730" y="590" />
              <mxPoint x="730" y="800" />
            </Array>
          </mxGeometry>
        </mxCell>
        <mxCell id="tyXF_pZuItII3kSLFftu-10" value="Escrever&lt;div&gt;&quot;Sexta-feira&quot;&lt;/div&gt;" style="shape=parallelogram;perimeter=parallelogramPerimeter;whiteSpace=wrap;html=1;fixedSize=1;fillColor=#dae8fc;strokeColor=#6c8ebf;" vertex="1" parent="1">
          <mxGeometry x="540" y="570" width="120" height="40" as="geometry" />
        </mxCell>
        <mxCell id="tyXF_pZuItII3kSLFftu-40" style="edgeStyle=orthogonalEdgeStyle;rounded=0;orthogonalLoop=1;jettySize=auto;html=1;" edge="1" parent="1" source="tyXF_pZuItII3kSLFftu-11" target="tyXF_pZuItII3kSLFftu-30">
          <mxGeometry relative="1" as="geometry">
            <Array as="points">
              <mxPoint x="730" y="640" />
              <mxPoint x="730" y="800" />
            </Array>
          </mxGeometry>
        </mxCell>
        <mxCell id="tyXF_pZuItII3kSLFftu-11" value="Escrever&lt;div&gt;&quot;Sábado&quot;&lt;/div&gt;" style="shape=parallelogram;perimeter=parallelogramPerimeter;whiteSpace=wrap;html=1;fixedSize=1;fillColor=#dae8fc;strokeColor=#6c8ebf;" vertex="1" parent="1">
          <mxGeometry x="540" y="620" width="120" height="40" as="geometry" />
        </mxCell>
        <mxCell id="tyXF_pZuItII3kSLFftu-41" style="edgeStyle=orthogonalEdgeStyle;rounded=0;orthogonalLoop=1;jettySize=auto;html=1;" edge="1" parent="1" source="tyXF_pZuItII3kSLFftu-12" target="tyXF_pZuItII3kSLFftu-30">
          <mxGeometry relative="1" as="geometry">
            <Array as="points">
              <mxPoint x="730" y="695" />
              <mxPoint x="730" y="800" />
            </Array>
          </mxGeometry>
        </mxCell>
        <mxCell id="tyXF_pZuItII3kSLFftu-12" value="Escrever&lt;div&gt;&quot;Domingo&quot;&lt;/div&gt;" style="shape=parallelogram;perimeter=parallelogramPerimeter;whiteSpace=wrap;html=1;fixedSize=1;fillColor=#dae8fc;strokeColor=#6c8ebf;" vertex="1" parent="1">
          <mxGeometry x="540" y="675" width="120" height="40" as="geometry" />
        </mxCell>
        <mxCell id="tyXF_pZuItII3kSLFftu-43" style="edgeStyle=orthogonalEdgeStyle;rounded=0;orthogonalLoop=1;jettySize=auto;html=1;" edge="1" parent="1" source="tyXF_pZuItII3kSLFftu-27" target="tyXF_pZuItII3kSLFftu-2">
          <mxGeometry relative="1" as="geometry">
            <Array as="points">
              <mxPoint x="180" y="170" />
            </Array>
          </mxGeometry>
        </mxCell>
        <mxCell id="tyXF_pZuItII3kSLFftu-27" value="Escrever&lt;div&gt;&quot;ERRO: Número de&lt;/div&gt;&lt;div&gt;1 a 7, por favor&quot;&lt;/div&gt;" style="shape=parallelogram;perimeter=parallelogramPerimeter;whiteSpace=wrap;html=1;fixedSize=1;fillColor=#dae8fc;strokeColor=#6c8ebf;" vertex="1" parent="1">
          <mxGeometry x="110" y="257.5" width="140" height="55" as="geometry" />
        </mxCell>
        <mxCell id="tyXF_pZuItII3kSLFftu-30" value="Fim" style="ellipse;whiteSpace=wrap;html=1;fillColor=#d5e8d4;strokeColor=#82b366;" vertex="1" parent="1">
          <mxGeometry x="354" y="760" width="120" height="80" as="geometry" />
        </mxCell>
        <mxCell id="tyXF_pZuItII3kSLFftu-46" value="" style="edgeStyle=orthogonalEdgeStyle;rounded=0;orthogonalLoop=1;jettySize=auto;html=1;" edge="1" parent="1" source="tyXF_pZuItII3kSLFftu-44" target="tyXF_pZuItII3kSLFftu-27">
          <mxGeometry relative="1" as="geometry" />
        </mxCell>
        <mxCell id="tyXF_pZuItII3kSLFftu-48" value="Não" style="edgeLabel;html=1;align=center;verticalAlign=middle;resizable=0;points=[];" vertex="1" connectable="0" parent="tyXF_pZuItII3kSLFftu-46">
          <mxGeometry x="-0.2264" y="3" relative="1" as="geometry">
            <mxPoint as="offset" />
          </mxGeometry>
        </mxCell>
        <mxCell id="tyXF_pZuItII3kSLFftu-47" value="" style="edgeStyle=orthogonalEdgeStyle;rounded=0;orthogonalLoop=1;jettySize=auto;html=1;" edge="1" parent="1" source="tyXF_pZuItII3kSLFftu-44" target="tyXF_pZuItII3kSLFftu-3">
          <mxGeometry relative="1" as="geometry" />
        </mxCell>
        <mxCell id="tyXF_pZuItII3kSLFftu-49" value="Sim" style="edgeLabel;html=1;align=center;verticalAlign=middle;resizable=0;points=[];" vertex="1" connectable="0" parent="tyXF_pZuItII3kSLFftu-47">
          <mxGeometry x="-0.2" y="1" relative="1" as="geometry">
            <mxPoint as="offset" />
          </mxGeometry>
        </mxCell>
        <mxCell id="tyXF_pZuItII3kSLFftu-44" value="N&amp;gt;=1&lt;div&gt;AND&lt;/div&gt;&lt;div&gt;N&amp;lt;=7&amp;nbsp;&lt;/div&gt;" style="rhombus;whiteSpace=wrap;html=1;fillColor=#fff2cc;strokeColor=#d6b656;" vertex="1" parent="1">
          <mxGeometry x="346" y="240" width="136" height="90" as="geometry" />
        </mxCell>
      </root>
    </mxGraphModel>
  </diagram>
</mxfile>
